<svg width="21" height="25" viewBox="0 0 21 25" fill="none" xmlns="http://www.w3.org/2000/svg">
<path fill-rule="evenodd" clip-rule="evenodd" d="M19.9277 20.241L20.3874 21H0.612671L1.07237 20.241C2.30579 18.2044 2.97141 15.8748 3.00004 13.5V8.5C3.00004 4.35786 6.35791 1 10.5 1C14.6422 1 18 4.35786 18 8.5V13.497C18.0292 15.8767 18.6948 18.2053 19.9277 20.241ZM17.0001 13.506L17 13.5V8.5C17 4.91015 14.0899 2 10.5 2C6.91019 2 4.00004 4.91015 4.00004 8.5L4.00001 13.506C3.9727 15.7742 3.40759 17.9992 2.35643 20H18.6437C17.5925 17.9992 17.0274 15.7742 17.0001 13.506ZM10.5 24.4932C9.23136 24.4932 8.09983 23.6951 7.67404 22.5H13.326C12.9003 23.6951 11.7687 24.4932 10.5 24.4932Z" fill="white"/>
<path d="M20.3874 21V21.2H20.7424L20.5585 20.8964L20.3874 21ZM19.9277 20.241L20.0988 20.1374L19.9277 20.241ZM0.612671 21L0.4416 20.8964L0.257722 21.2H0.612671V21ZM1.07237 20.241L1.24344 20.3446H1.24344L1.07237 20.241ZM3.00004 13.5L3.20004 13.5024V13.5H3.00004ZM18 13.497H17.8L17.8001 13.4994L18 13.497ZM17 13.5H16.8L16.8 13.5012L17 13.5ZM17.0001 13.506L16.8001 13.5072L16.8001 13.5084L17.0001 13.506ZM4.00004 8.5L4.20004 8.5V8.5H4.00004ZM4.00001 13.506L4.20001 13.5084V13.506L4.00001 13.506ZM2.35643 20L2.17938 19.907L2.02544 20.2H2.35643V20ZM18.6437 20V20.2H18.9747L18.8207 19.907L18.6437 20ZM7.67404 22.5V22.3H7.39047L7.48564 22.5671L7.67404 22.5ZM13.326 22.5L13.5144 22.5671L13.6096 22.3H13.326V22.5ZM20.5585 20.8964L20.0988 20.1374L19.7567 20.3446L20.2163 21.1036L20.5585 20.8964ZM0.612671 21.2H20.3874V20.8H0.612671V21.2ZM0.901295 20.1374L0.4416 20.8964L0.783742 21.1036L1.24344 20.3446L0.901295 20.1374ZM2.80006 13.4976C2.77186 15.8366 2.11624 18.1313 0.901295 20.1374L1.24344 20.3446C2.49534 18.2775 3.17097 15.9129 3.20003 13.5024L2.80006 13.4976ZM2.80004 8.5V13.5H3.20004V8.5H2.80004ZM10.5 0.8C6.24745 0.8 2.80004 4.24741 2.80004 8.5H3.20004C3.20004 4.46832 6.46837 1.2 10.5 1.2V0.8ZM18.2 8.5C18.2 4.24741 14.7526 0.8 10.5 0.8V1.2C14.5317 1.2 17.8 4.46832 17.8 8.5H18.2ZM18.2 13.497V8.5H17.8V13.497H18.2ZM20.0988 20.1374C18.8844 18.1322 18.2288 15.8386 18.2 13.4945L17.8001 13.4994C17.8297 15.9148 18.5052 18.2783 19.7567 20.3446L20.0988 20.1374ZM16.8 13.5012L16.8001 13.5072L17.2001 13.5048L17.2 13.4988L16.8 13.5012ZM16.8 8.5V13.5H17.2V8.5H16.8ZM10.5 2.2C13.9794 2.2 16.8 5.02061 16.8 8.5H17.2C17.2 4.79969 14.2004 1.8 10.5 1.8V2.2ZM4.20004 8.5C4.20004 5.02061 7.02065 2.2 10.5 2.2V1.8C6.79974 1.8 3.80004 4.79969 3.80004 8.5H4.20004ZM4.20001 13.506L4.20004 8.5L3.80004 8.5L3.80001 13.506L4.20001 13.506ZM2.53348 20.093C3.59931 18.0643 4.1723 15.8082 4.19999 13.5084L3.80002 13.5036C3.77309 15.7401 3.21587 17.9341 2.17938 19.907L2.53348 20.093ZM18.6437 19.8H2.35643V20.2H18.6437V19.8ZM16.8001 13.5084C16.8278 15.8082 17.4008 18.0643 18.4666 20.093L18.8207 19.907C17.7842 17.9341 17.227 15.7401 17.2001 13.5036L16.8001 13.5084ZM7.48564 22.5671C7.93982 23.8419 9.14678 24.6932 10.5 24.6932V24.2932C9.31594 24.2932 8.25985 23.5483 7.86244 22.4329L7.48564 22.5671ZM13.326 22.3H7.67404V22.7H13.326V22.3ZM10.5 24.6932C11.8533 24.6932 13.0603 23.8419 13.5144 22.5671L13.1376 22.4329C12.7402 23.5483 11.6842 24.2932 10.5 24.2932V24.6932Z" fill="white"/>
</svg>
